# xmcd
#
# Track frame offsets:
#	150
#	12689
#	25056
#	39755
#	52248
#	66225
#	79831
#	91808
#	104469
#	114728
#	123862
#	138006
#	148451
#	161637
#	174475
#	189790
#	200776
#	214854
#
# Disc length: 3017 seconds
#
# Revision: 0
# Processed by: cddbd v1.5.2PL0 Copyright (c) Steve Scherf et al.
# Submitted via: audiograbber 1.83.01
#
DISCID=030bc712
DTITLE=Various Artist - Roots Of The Blues - Disc 1
DYEAR=2010
DGENRE=Blues
TTITLE0=Mississippi John Hurt - Candy Man Blues
TTITLE1=John Lee Hooker - War Is Over (Goodbye California)
TTITLE2=Big Joe Williams - Highway 49
TTITLE3=Memphis Minnie - Me And My Chauffeur Blues
TTITLE4=Muddy Waters - I Be's Troubled
TTITLE5=B.b. King - Blind Love
TTITLE6=Robert Johnson - When You Got A Good Friend 
TTITLE7=B.b. King - Boogie Woogie Woman 
TTITLE8=Lightnin' Hopkins - Down Baby 
TTITLE9=B.b. King - Don't You Want A Man Like Me 
TTITLE10=Bessie Smith - Lady Luck Blues 
TTITLE11=B.b. King - Fine Looking Woman 
TTITLE12=Leadbelly - Good Morning Blues 
TTITLE13=B.b. King - Got The Blues 
TTITLE14=Muddy Waters - Country Blues
TTITLE15=B.b. King - Gotta Find My Baby
TTITLE16=John Lee Hooker - Stomp Boogie
TTITLE17=B.b. King - Hard Working Woman 
EXTD=Roots Of The Blues\n4 CD Set - Disc 1\nPlay 24-7 -- Play 4-012 -- Compiled
EXTD=2010\n72 Blues Standards That Inspired Generations\nDigitally Remastered
EXTT0=
EXTT1=
EXTT2=
EXTT3=
EXTT4=
EXTT5=
EXTT6=
EXTT7=
EXTT8=
EXTT9=
EXTT10=
EXTT11=
EXTT12=
EXTT13=
EXTT14=
EXTT15=
EXTT16=
EXTT17=
PLAYORDER=
